<svg xmlns="http://www.w3.org/2000/svg" xmlns:xlink="http://www.w3.org/1999/xlink" width="128.822" height="29.696" viewBox="0 0 128.822 29.696">
  <defs>
    <linearGradient id="linear-gradient" x1="0.041" y1="0.216" x2="0.943" y2="1" gradientUnits="objectBoundingBox">
      <stop offset="0" stop-color="#4fbcff"/>
      <stop offset="1" stop-color="#bc50ff"/>
    </linearGradient>
  </defs>
  <path id="Path_26464" data-name="Path 26464" d="M2.976-33.7V-4.335H19.5V-9.856H10.128V-33.7ZM31.124-22.278c2.384,0,4.392,1.464,4.392,4.015H26.566A4.424,4.424,0,0,1,31.124-22.278ZM42.292-12.072H34.68a3.8,3.8,0,0,1-3.722,2.259c-2.3,0-4.183-1.422-4.433-4.475H42.71a18.074,18.074,0,0,0,.125-2.091c0-7.11-4.81-11.627-11.627-11.627-6.943,0-11.795,4.6-11.795,12S24.349-4,31.208-4C37.022-4,41.163-7.513,42.292-12.072Zm3.346-.376c0,6.065,3.388,8.114,8.24,8.114h3.639V-10.4H54.965c-1.589,0-2.175-.586-2.175-1.966v-9.369h4.684v-5.939H52.79v-5.688H45.638v5.688H42.794v5.939h2.844ZM78.345-11.11c-.125-8.7-12.757-6.065-12.757-9.787,0-1.129.92-1.8,2.593-1.8,2.008,0,3.221,1.046,3.43,2.635H78.22c-.46-4.6-3.806-7.947-9.829-7.947-6.106,0-9.494,3.262-9.494,7.236,0,8.574,12.715,5.856,12.715,9.62,0,1.046-.962,1.882-2.8,1.882-1.966,0-3.43-1.087-3.6-2.719H58.144C58.478-7.472,62.661-4,68.893-4,74.748-4,78.345-7.053,78.345-11.11ZM91.646-33.7h-11V-4.335h11c9.369,0,15.392-5.981,15.392-14.681C107.037-27.757,101.015-33.7,91.646-33.7ZM87.8-10.525V-27.59h3.388c5.4,0,8.574,3.179,8.574,8.574s-3.179,8.491-8.574,8.491ZM131.8-16c0-7.4-5.27-12-12.129-12-6.818,0-12.129,4.6-12.129,12s5.186,12,12.046,12S131.8-8.6,131.8-16Zm-16.981,0c0-3.973,2.259-5.814,4.852-5.814,2.51,0,4.852,1.84,4.852,5.814,0,3.932-2.384,5.814-4.935,5.814C116.992-10.19,114.817-12.072,114.817-16Z" transform="translate(-2.976 33.696)" fill="url(#linear-gradient)"/>
</svg>
